<svg width="604" height="456" viewBox="0 0 604 456" fill="none" xmlns="http://www.w3.org/2000/svg">
<g clip-path="url(#clip0_2_59)">
<path d="M348.068 22.1936C353.249 33.2202 342.27 36.3435 329.695 42.2536C317.119 48.1637 307.708 54.6226 302.527 43.5961C297.347 32.5695 293.143 10.6837 310.933 2.3228C329.337 -6.32612 342.887 11.167 348.068 22.1936Z" fill="#2F2E41"/>
<path d="M322.41 43.8786C331.76 43.8786 339.34 36.298 339.34 26.9469C339.34 17.5958 331.76 10.0153 322.41 10.0153C313.06 10.0153 305.48 17.5958 305.48 26.9469C305.48 36.298 313.06 43.8786 322.41 43.8786Z" fill="#FFB8B8"/>
<path d="M406.282 102.035C405.696 101.27 405.11 100.519 404.517 99.788C403.752 98.8367 402.983 97.9152 402.208 97.0236C393.434 86.8968 384.101 80.5201 373.824 79.8376H373.81L373.658 79.8239L353.18 99.788L346.218 106.571L346.369 106.944L350.126 116.298H415.946C412.98 111.376 409.754 106.615 406.282 102.035Z" fill="#2F2E41"/>
<path d="M304 33.7636L310.061 30.9155L309.216 22.1719L313.269 29.4077L316.165 28.0465L315.673 22.9461L318.037 27.1669L339.559 17.0521C337.538 12.7498 333.89 9.42677 329.419 7.81413C324.948 6.20149 320.019 6.43128 315.718 8.45296L312.598 9.91889C308.297 11.9406 304.974 15.5886 303.362 20.0603C301.749 24.532 301.979 29.4612 304 33.7636Z" fill="#2F2E41"/>
<path d="M444.261 341.101H90.7701C87.7548 341.097 84.864 339.898 82.7318 337.765C80.5997 335.633 79.4003 332.742 79.3969 329.726V117.294C79.3994 115.085 80.278 112.966 81.84 111.404C83.402 109.842 85.5199 108.963 87.7289 108.961H447.158C449.406 108.963 451.56 109.857 453.149 111.446C454.738 113.036 455.632 115.19 455.635 117.438V329.726C455.631 332.742 454.432 335.633 452.3 337.765C450.168 339.898 447.277 341.097 444.261 341.101Z" fill="#F2F2F2"/>
<path d="M101.799 329.726H433.233C436.158 329.726 438.963 328.564 441.031 326.496C443.1 324.427 444.261 321.621 444.261 318.696V138.393C444.261 135.467 443.1 132.662 441.031 130.593C438.963 128.525 436.158 127.363 433.233 127.363H101.799C98.8737 127.363 96.0686 128.525 94.0003 130.593C91.9321 132.662 90.7701 135.467 90.7701 138.393V318.696C90.7701 321.621 91.9321 324.427 94.0003 326.496C96.0686 328.564 98.8737 329.726 101.799 329.726Z" fill="white"/>
<path d="M455.476 116.643H79.2373V110.852C79.2417 107.827 80.4459 104.926 82.5858 102.787C84.7257 100.648 87.6265 99.4459 90.6519 99.4434H444.062C447.087 99.4458 449.988 100.648 452.128 102.787C454.268 104.926 455.472 107.827 455.476 110.852V116.643Z" fill="#004058"/>
<path d="M99.9816 111.013C101.612 111.013 102.934 109.691 102.934 108.06C102.934 106.43 101.612 105.108 99.9816 105.108C98.351 105.108 97.0291 106.43 97.0291 108.06C97.0291 109.691 98.351 111.013 99.9816 111.013Z" fill="white"/>
<path d="M111.189 111.013C112.819 111.013 114.141 109.691 114.141 108.06C114.141 106.43 112.819 105.108 111.189 105.108C109.558 105.108 108.236 106.43 108.236 108.06C108.236 109.691 109.558 111.013 111.189 111.013Z" fill="white"/>
<path d="M122.395 111.013C124.026 111.013 125.348 109.691 125.348 108.06C125.348 106.43 124.026 105.108 122.395 105.108C120.765 105.108 119.443 106.43 119.443 108.06C119.443 109.691 120.765 111.013 122.395 111.013Z" fill="white"/>
<path d="M277.857 290.624H248.218C246.482 290.622 244.818 289.932 243.59 288.704C242.363 287.476 241.672 285.812 241.67 284.075V254.432C241.672 252.696 242.363 251.031 243.59 249.804C244.818 248.576 246.482 247.885 248.218 247.883H277.857C279.594 247.885 281.258 248.576 282.486 249.804C283.713 251.031 284.404 252.696 284.406 254.432V284.075C284.404 285.812 283.713 287.476 282.486 288.704C281.258 289.932 279.594 290.622 277.857 290.624ZM248.218 249.262C246.848 249.264 245.534 249.809 244.564 250.778C243.595 251.747 243.05 253.062 243.049 254.432V284.075C243.05 285.446 243.595 286.76 244.564 287.73C245.534 288.699 246.848 289.244 248.218 289.246H277.857C279.228 289.244 280.542 288.699 281.511 287.73C282.48 286.76 283.026 285.446 283.027 284.075V254.432C283.026 253.062 282.48 251.747 281.511 250.778C280.542 249.809 279.228 249.264 277.857 249.262H248.218Z" fill="#CCCCCC"/>
<path d="M271.999 282.352H254.077C253.529 282.351 253.003 282.133 252.616 281.745C252.228 281.358 252.01 280.832 252.009 280.284V258.224C252.01 257.676 252.228 257.15 252.616 256.762C253.003 256.374 253.529 256.156 254.077 256.156H267.063C267.534 256.156 267.991 256.317 268.358 256.612L273.294 260.578C273.535 260.772 273.73 261.017 273.864 261.296C273.998 261.575 274.067 261.881 274.066 262.19V280.284C274.066 280.832 273.848 281.358 273.46 281.745C273.072 282.133 272.547 282.351 271.999 282.352ZM254.077 257.535C253.894 257.535 253.719 257.607 253.59 257.737C253.461 257.866 253.388 258.041 253.388 258.224V280.284C253.388 280.466 253.461 280.642 253.59 280.771C253.719 280.9 253.894 280.973 254.077 280.973H271.999C272.181 280.973 272.356 280.9 272.486 280.771C272.615 280.642 272.688 280.466 272.688 280.284V262.19C272.688 262.087 272.665 261.985 272.62 261.892C272.576 261.799 272.511 261.718 272.43 261.653L267.494 257.686C267.372 257.588 267.22 257.535 267.063 257.535H254.077Z" fill="#CCCCCC"/>
<path d="M268.552 265.807H257.524C257.341 265.807 257.165 265.734 257.036 265.605C256.907 265.476 256.834 265.3 256.834 265.118C256.834 264.935 256.907 264.759 257.036 264.63C257.165 264.501 257.341 264.428 257.524 264.428H268.552C268.735 264.428 268.91 264.501 269.039 264.63C269.169 264.759 269.241 264.935 269.241 265.118C269.241 265.3 269.169 265.476 269.039 265.605C268.91 265.734 268.735 265.807 268.552 265.807Z" fill="#CCCCCC"/>
<path d="M268.552 269.943H257.524C257.341 269.943 257.165 269.871 257.036 269.741C256.907 269.612 256.834 269.437 256.834 269.254C256.834 269.071 256.907 268.896 257.036 268.766C257.165 268.637 257.341 268.564 257.524 268.564H268.552C268.735 268.564 268.91 268.637 269.039 268.766C269.169 268.896 269.241 269.071 269.241 269.254C269.241 269.437 269.169 269.612 269.039 269.741C268.91 269.871 268.735 269.943 268.552 269.943Z" fill="#CCCCCC"/>
<path d="M268.552 274.079H257.524C257.341 274.079 257.165 274.007 257.036 273.877C256.907 273.748 256.834 273.573 256.834 273.39C256.834 273.207 256.907 273.032 257.036 272.903C257.165 272.773 257.341 272.701 257.524 272.701H268.552C268.735 272.701 268.91 272.773 269.039 272.903C269.169 273.032 269.241 273.207 269.241 273.39C269.241 273.573 269.169 273.748 269.039 273.877C268.91 274.007 268.735 274.079 268.552 274.079Z" fill="#CCCCCC"/>
<path d="M348.164 290.624H318.525C316.789 290.622 315.125 289.932 313.897 288.704C312.67 287.476 311.979 285.812 311.977 284.075V254.432C311.979 252.696 312.67 251.031 313.897 249.804C315.125 248.576 316.789 247.885 318.525 247.883H348.164C349.9 247.885 351.565 248.576 352.792 249.804C354.02 251.031 354.711 252.696 354.713 254.432V284.075C354.711 285.812 354.02 287.476 352.792 288.704C351.565 289.932 349.9 290.622 348.164 290.624ZM318.525 249.262C317.155 249.264 315.841 249.809 314.871 250.778C313.902 251.747 313.357 253.062 313.356 254.432V284.075C313.357 285.446 313.902 286.76 314.871 287.73C315.841 288.699 317.155 289.244 318.525 289.246H348.164C349.535 289.244 350.849 288.699 351.818 287.73C352.787 286.76 353.332 285.446 353.334 284.075V254.432C353.332 253.062 352.787 251.747 351.818 250.778C350.849 249.809 349.535 249.264 348.164 249.262H318.525Z" fill="#CCCCCC"/>
<path d="M342.995 276.837H323.695C323.147 276.836 322.621 276.618 322.233 276.23C321.846 275.843 321.628 275.317 321.627 274.769V263.739C321.628 263.19 321.846 262.665 322.233 262.277C322.621 261.889 323.147 261.671 323.695 261.671H342.995C343.543 261.671 344.069 261.889 344.456 262.277C344.844 262.665 345.062 263.19 345.063 263.739V274.769C345.062 275.317 344.844 275.843 344.456 276.23C344.069 276.618 343.543 276.836 342.995 276.837ZM323.695 263.049C323.512 263.05 323.337 263.122 323.208 263.252C323.078 263.381 323.006 263.556 323.006 263.739V274.769C323.006 274.951 323.078 275.127 323.208 275.256C323.337 275.385 323.512 275.458 323.695 275.458H342.995C343.178 275.458 343.353 275.385 343.482 275.256C343.611 275.127 343.684 274.951 343.684 274.769V263.739C343.684 263.556 343.611 263.381 343.482 263.252C343.353 263.122 343.178 263.05 342.995 263.049H323.695Z" fill="#CCCCCC"/>
<path d="M333.345 271.073C332.958 271.073 332.578 270.965 332.249 270.761L321.951 264.324C321.796 264.226 321.686 264.072 321.645 263.894C321.605 263.716 321.636 263.529 321.733 263.374C321.83 263.219 321.984 263.109 322.162 263.068C322.34 263.027 322.527 263.058 322.682 263.154L332.98 269.591C333.09 269.659 333.216 269.695 333.345 269.695C333.474 269.695 333.601 269.659 333.71 269.591L344.008 263.154C344.163 263.058 344.35 263.027 344.528 263.068C344.706 263.109 344.86 263.219 344.957 263.374C345.054 263.529 345.085 263.716 345.044 263.894C345.003 264.072 344.893 264.226 344.739 264.324L334.441 270.761C334.112 270.965 333.732 271.073 333.345 271.073Z" fill="#CCCCCC"/>
<path d="M207.55 290.624H177.911C176.175 290.622 174.511 289.932 173.283 288.704C172.056 287.476 171.365 285.812 171.363 284.075V254.432C171.365 252.696 172.056 251.031 173.283 249.804C174.511 248.576 176.175 247.885 177.911 247.883H207.55C209.287 247.885 210.951 248.576 212.179 249.804C213.406 251.031 214.097 252.696 214.099 254.432V284.075C214.097 285.812 213.406 287.476 212.179 288.704C210.951 289.932 209.287 290.622 207.55 290.624ZM177.911 249.262C176.541 249.264 175.227 249.809 174.257 250.778C173.288 251.747 172.743 253.062 172.742 254.432V284.075C172.743 285.446 173.288 286.76 174.257 287.73C175.227 288.699 176.541 289.244 177.911 289.246H207.55C208.921 289.244 210.235 288.699 211.204 287.73C212.173 286.76 212.719 285.446 212.72 284.075V254.432C212.719 253.062 212.173 251.747 211.204 250.778C210.235 249.809 208.921 249.264 207.55 249.262H177.911Z" fill="#CCCCCC"/>
<path d="M202.381 276.837H183.081C182.533 276.836 182.007 276.618 181.619 276.23C181.232 275.843 181.014 275.317 181.013 274.769V263.739C181.014 263.19 181.232 262.665 181.619 262.277C182.007 261.889 182.533 261.671 183.081 261.671H202.381C202.929 261.671 203.455 261.889 203.842 262.277C204.23 262.665 204.448 263.19 204.449 263.739V274.769C204.448 275.317 204.23 275.843 203.842 276.23C203.455 276.618 202.929 276.836 202.381 276.837ZM183.081 263.049C182.898 263.05 182.723 263.122 182.594 263.252C182.464 263.381 182.392 263.556 182.392 263.739V274.769C182.392 274.951 182.464 275.127 182.594 275.256C182.723 275.385 182.898 275.458 183.081 275.458H202.381C202.564 275.458 202.739 275.385 202.868 275.256C202.997 275.127 203.07 274.951 203.07 274.769V263.739C203.07 263.556 202.997 263.381 202.868 263.252C202.739 263.122 202.564 263.05 202.381 263.049H183.081Z" fill="#CCCCCC"/>
<path d="M199.322 276.837H185.451C185.209 276.837 184.971 276.773 184.761 276.652C184.552 276.531 184.378 276.357 184.257 276.148C184.136 275.938 184.072 275.7 184.072 275.458C184.072 275.216 184.136 274.978 184.257 274.769L188.435 267.53C188.556 267.321 188.73 267.147 188.94 267.026C189.149 266.905 189.387 266.841 189.629 266.841C189.871 266.841 190.109 266.905 190.318 267.026C190.528 267.147 190.702 267.321 190.823 267.53L193.521 272.205L195.085 269.497C195.206 269.287 195.38 269.113 195.589 268.992C195.799 268.871 196.037 268.808 196.279 268.808C196.521 268.808 196.758 268.871 196.968 268.992C197.178 269.113 197.352 269.287 197.473 269.497L200.516 274.769C200.637 274.978 200.701 275.216 200.701 275.458C200.701 275.7 200.637 275.938 200.516 276.148C200.395 276.357 200.221 276.531 200.011 276.652C199.802 276.773 199.564 276.837 199.322 276.837H199.322ZM199.322 275.458L196.279 270.186L194.119 273.929C194.058 274.033 193.971 274.121 193.866 274.181C193.761 274.242 193.643 274.273 193.521 274.273C193.4 274.273 193.282 274.242 193.177 274.181C193.072 274.121 192.985 274.033 192.924 273.929L189.629 268.22L185.451 275.458H199.322Z" fill="#CCCCCC"/>
<path d="M200.313 267.186C201.074 267.186 201.691 266.568 201.691 265.807C201.691 265.045 201.074 264.428 200.313 264.428C199.552 264.428 198.934 265.045 198.934 265.807C198.934 266.568 199.552 267.186 200.313 267.186Z" fill="#CCCCCC"/>
<path d="M529.939 446.816L521.488 446.815L517.468 414.216L529.94 414.217L529.939 446.816Z" fill="#FFB8B8"/>
<path d="M532.094 455.008L504.846 455.007V454.662C504.846 453.269 505.12 451.89 505.653 450.603C506.186 449.316 506.967 448.147 507.952 447.162C508.937 446.177 510.106 445.396 511.393 444.863C512.68 444.33 514.059 444.056 515.452 444.056H515.452L532.094 444.056L532.094 455.008Z" fill="#2F2E41"/>
<path d="M564.403 446.816L555.952 446.815L551.932 414.216L564.404 414.217L564.403 446.816Z" fill="#FFB8B8"/>
<path d="M566.558 455.008L539.31 455.007V454.662C539.31 453.269 539.585 451.89 540.117 450.603C540.65 449.316 541.432 448.147 542.417 447.162C543.401 446.177 544.571 445.396 545.857 444.863C547.144 444.33 548.523 444.056 549.916 444.056H549.917L566.558 444.056L566.558 455.008Z" fill="#2F2E41"/>
<path d="M561.87 432.684L554.043 430.303C553.46 430.126 552.942 429.781 552.553 429.311C552.165 428.841 551.924 428.267 551.861 427.66L544.564 358.498C544.559 358.415 544.521 358.336 544.46 358.279C544.399 358.222 544.318 358.19 544.234 358.19C544.151 358.182 544.067 358.207 544.001 358.26C543.936 358.312 543.893 358.388 543.883 358.472L531.661 425.478C531.587 425.885 531.432 426.273 531.206 426.618C530.98 426.964 530.687 427.262 530.344 427.493C530.002 427.724 529.617 427.884 529.211 427.965C528.806 428.045 528.389 428.043 527.984 427.96L517.981 425.899C517.248 425.746 516.594 425.333 516.141 424.736C515.687 424.139 515.464 423.399 515.512 422.651L522.947 312.825L573.359 307.385L565.868 429.905C565.82 430.692 565.473 431.432 564.899 431.973C564.325 432.515 563.566 432.817 562.777 432.819C562.47 432.819 562.164 432.773 561.87 432.684Z" fill="#2F2E41"/>
<path d="M561.822 217.185C571.172 217.185 578.751 209.604 578.751 200.253C578.751 190.902 571.172 183.322 561.822 183.322C552.472 183.322 544.892 190.902 544.892 200.253C544.892 209.604 552.472 217.185 561.822 217.185Z" fill="#FFB8B8"/>
<path d="M522.869 313.47L533.8 244.636C534.381 240.976 535.735 237.482 537.771 234.386C539.808 231.291 542.48 228.664 545.611 226.681C548.741 224.699 552.258 223.406 555.927 222.888C559.595 222.371 563.333 222.64 566.889 223.68C573.107 225.478 578.432 229.531 581.823 235.046C585.213 240.561 586.426 247.142 585.225 253.503L573.789 314.976L522.869 313.47Z" fill="#004058"/>
<path d="M566.495 325.787C567.341 325.228 568.054 324.491 568.584 323.627C569.114 322.764 569.448 321.794 569.563 320.787C569.678 319.78 569.57 318.761 569.248 317.8C568.927 316.839 568.398 315.96 567.7 315.226L579.001 293.337L566.274 294.696L557.493 315.273C556.337 316.528 555.681 318.163 555.65 319.869C555.619 321.575 556.215 323.233 557.325 324.529C558.435 325.825 559.981 326.669 561.671 326.901C563.361 327.132 565.078 326.736 566.495 325.787V325.787Z" fill="#FFB8B8"/>
<path d="M568.916 311.365C568.29 311.276 567.707 311 567.243 310.571L562.919 306.575C562.452 306.142 562.129 305.575 561.995 304.952C561.86 304.329 561.92 303.679 562.166 303.091L570.808 282.604L569.582 242.125C569.759 240.823 570.189 239.57 570.85 238.435C571.511 237.3 572.39 236.307 573.435 235.512C574.48 234.717 575.671 234.136 576.941 233.802C578.21 233.467 579.534 233.387 580.835 233.564C582.135 233.742 583.389 234.174 584.522 234.836C585.656 235.498 586.649 236.377 587.443 237.423C588.236 238.469 588.816 239.661 589.149 240.931C589.482 242.202 589.562 243.525 589.383 244.826L591.479 270.272C592.117 277.995 589.927 285.687 585.319 291.916L571.842 310.138C571.583 310.488 571.253 310.78 570.873 310.994C570.494 311.208 570.073 311.34 569.64 311.381C569.398 311.404 569.155 311.399 568.916 311.365Z" fill="#004058"/>
<path d="M464.33 191.028C464.514 192.025 464.915 192.969 465.504 193.794C466.092 194.618 466.855 195.304 467.737 195.802C468.619 196.301 469.6 196.6 470.611 196.678C471.621 196.756 472.636 196.612 473.585 196.255L489.332 215.198L493.043 202.946L477.521 186.836C476.816 185.282 475.566 184.041 474.007 183.347C472.448 182.654 470.689 182.556 469.063 183.073C467.438 183.589 466.058 184.685 465.185 186.151C464.313 187.617 464.008 189.353 464.33 191.028Z" fill="#FFB8B8"/>
<path d="M476.665 198.88C476.99 198.339 477.473 197.909 478.048 197.649L483.413 195.225C483.995 194.964 484.642 194.887 485.269 195.006C485.895 195.125 486.469 195.434 486.915 195.89L502.408 211.837L540.158 226.49C541.288 227.16 542.274 228.045 543.062 229.097C543.849 230.148 544.421 231.344 544.746 232.616C545.071 233.889 545.141 235.213 544.954 236.513C544.767 237.813 544.325 239.063 543.654 240.192C542.984 241.321 542.097 242.307 541.045 243.093C539.993 243.879 538.797 244.45 537.524 244.774C536.251 245.097 534.927 245.166 533.628 244.977C532.328 244.789 531.078 244.346 529.95 243.673L505.704 235.683C498.344 233.258 492.116 228.243 488.177 221.57L476.654 202.054C476.433 201.678 476.293 201.26 476.243 200.827C476.194 200.394 476.236 199.956 476.368 199.54C476.44 199.309 476.54 199.088 476.665 198.88Z" fill="#004058"/>
<path opacity="0.1" d="M575.553 258.964L574.864 281.023L562.166 303.091L572.769 278.499L575.553 258.964Z" fill="black"/>
<path d="M559.882 203.435C558.819 203.573 557.742 203.321 556.85 202.725C555.959 202.129 555.314 201.229 555.036 200.194C554.768 199.002 554.18 197.905 553.336 197.022C552.492 196.139 551.423 195.502 550.245 195.179C547.139 194.47 543.344 195.932 541.068 193.578C540.581 193.041 540.228 192.396 540.04 191.696C539.851 190.995 539.831 190.26 539.982 189.551C540.401 187.264 542.037 185.537 543.817 184.155C547.563 181.261 552.096 179.566 556.821 179.294C559.267 179.224 561.715 179.345 564.142 179.659C566.683 179.819 569.196 180.278 571.63 181.027C574.403 182.074 576.867 183.802 578.794 186.053C580.722 188.304 582.052 191.004 582.66 193.905C583.216 196.814 583.131 199.81 582.41 202.683C581.688 205.557 580.349 208.238 578.485 210.54C576.253 213.319 573.375 215.51 570.103 216.922C569.323 217.29 568.43 217.336 567.617 217.048C565.578 216.238 565.912 213.712 566.841 212.028C567.836 210.225 569.366 208.48 568.566 206.287C568.165 205.269 567.396 204.441 566.411 203.966C564.384 202.932 562.118 203.177 559.939 203.429L559.882 203.435Z" fill="#2F2E41"/>
<path d="M458.672 212.997H249.13C246.115 212.993 243.224 211.794 241.092 209.661C238.96 207.529 237.76 204.638 237.757 201.622V156.813C237.76 153.797 238.96 150.906 241.092 148.774C243.224 146.641 246.115 145.442 249.13 145.438H458.672C461.688 145.442 464.579 146.641 466.711 148.774C468.843 150.906 470.042 153.797 470.046 156.813V201.622C470.042 204.638 468.843 207.529 466.711 209.661C464.579 211.794 461.688 212.993 458.672 212.997Z" fill="white"/>
<path d="M458.672 213.341H249.13C246.023 213.338 243.045 212.102 240.848 209.905C238.651 207.708 237.416 204.729 237.412 201.622V156.813C237.416 153.706 238.651 150.727 240.848 148.53C243.045 146.333 246.023 145.097 249.13 145.094H458.672C461.779 145.097 464.757 146.333 466.954 148.53C469.151 150.727 470.387 153.706 470.39 156.813V201.622C470.387 204.729 469.151 207.708 466.954 209.905C464.757 212.102 461.779 213.338 458.672 213.341ZM249.13 146.472C246.389 146.476 243.761 147.566 241.822 149.505C239.884 151.443 238.794 154.072 238.791 156.813V201.622C238.794 204.364 239.884 206.992 241.822 208.931C243.761 210.869 246.389 211.96 249.13 211.963H458.672C461.414 211.96 464.042 210.869 465.98 208.931C467.918 206.992 469.009 204.364 469.012 201.622V156.813C469.009 154.072 467.918 151.443 465.98 149.505C464.042 147.566 461.414 146.476 458.672 146.472H249.13Z" fill="#3F3D56"/>
<path d="M433.169 201.967H274.634C271.618 201.963 268.727 200.764 266.595 198.632C264.463 196.499 263.264 193.608 263.26 190.592V167.154C263.264 164.138 264.463 161.247 266.595 159.114C268.727 156.982 271.618 155.782 274.634 155.779H433.169C436.184 155.782 439.075 156.982 441.207 159.114C443.339 161.247 444.539 164.138 444.542 167.154V190.592C444.539 193.608 443.339 196.499 441.207 198.632C439.075 200.764 436.184 201.963 433.169 201.967Z" fill="#F2F2F2"/>
<path d="M308.75 189.334C316.261 189.334 322.351 183.243 322.351 175.731C322.351 168.218 316.261 162.128 308.75 162.128C301.238 162.128 295.148 168.218 295.148 175.731C295.148 183.243 301.238 189.334 308.75 189.334Z" fill="#FF6584"/>
<path d="M423.317 200.594L404.119 184.491L385.252 168.665C384.754 168.248 384.125 168.019 383.475 168.021C382.825 168.022 382.196 168.253 381.7 168.672L362.894 184.57L358.301 188.454L351.375 182.644L330.326 164.989C329.828 164.571 329.199 164.343 328.549 164.344C327.899 164.345 327.271 164.576 326.774 164.995L305.794 182.732L284.483 200.747C284.375 200.839 284.298 200.961 284.262 201.098C284.226 201.234 284.232 201.379 284.281 201.511C284.33 201.644 284.418 201.759 284.534 201.84C284.65 201.92 284.788 201.964 284.93 201.963L328.621 201.879L342.451 201.852L342.316 201.967L383.54 201.887L422.875 201.812C423.017 201.811 423.155 201.768 423.27 201.686C423.386 201.605 423.474 201.49 423.522 201.357C423.57 201.224 423.577 201.08 423.54 200.943C423.503 200.807 423.425 200.685 423.317 200.594Z" fill="#3F3D56"/>
<path d="M603.311 456H470.968C470.785 456 470.61 455.927 470.481 455.798C470.352 455.669 470.279 455.493 470.279 455.311C470.279 455.128 470.352 454.952 470.481 454.823C470.61 454.694 470.785 454.621 470.968 454.621H603.311C603.494 454.621 603.669 454.694 603.798 454.823C603.927 454.952 604 455.128 604 455.311C604 455.493 603.927 455.669 603.798 455.798C603.669 455.927 603.494 456 603.311 456Z" fill="#CCCCCC"/>
<path d="M416.366 90.9365C415.816 90.0418 415.088 89.2686 414.229 88.6641C413.37 88.0597 412.397 87.6366 411.369 87.4207C410.992 87.3415 410.609 87.2931 410.225 87.2759L357.708 40.316C356.677 39.2556 355.301 38.598 353.828 38.4616C353.537 38.4282 353.244 38.419 352.952 38.434C351.74 38.4891 350.571 38.896 349.587 39.6052C348.603 40.3143 347.847 41.2949 347.411 42.4269C346.975 43.559 346.878 44.7936 347.133 45.9796C347.388 47.1657 347.982 48.2519 348.844 49.1055L368.95 66.6362L401.967 95.4174C401.994 95.9595 402.075 96.4975 402.208 97.0236C402.603 98.5478 403.452 99.9158 404.643 100.946C405.833 101.977 407.309 102.621 408.874 102.794C410.301 102.96 411.746 102.721 413.044 102.104C414.073 101.623 414.985 100.925 415.718 100.057C415.794 99.9672 415.863 99.8845 415.932 99.788C416.896 98.5318 417.454 97.0116 417.531 95.4301C417.609 93.8485 417.202 92.281 416.366 90.9365H416.366Z" fill="#FFB8B8"/>
<path d="M326.539 136.194L326.049 116.298L325.636 99.788L325.353 88.2342L324.795 65.7125C324.684 64.5066 324.225 63.3591 323.474 62.4098C322.722 61.4606 321.71 60.7507 320.562 60.3669C319.414 59.9831 318.178 59.942 317.007 60.2486C315.836 60.5551 314.779 61.1961 313.966 62.0933C313.775 62.2982 313.602 62.5197 313.449 62.7551C312.601 63.9706 312.219 65.4514 312.374 66.9257L313.601 99.788L314.214 116.298L315 137.359C314.773 137.668 314.568 137.993 314.387 138.331C313.896 139.26 313.6 140.28 313.516 141.327C313.432 142.375 313.562 143.429 313.897 144.425C314.248 145.469 314.815 146.428 315.562 147.237C316.31 148.046 317.22 148.688 318.233 149.119C319.247 149.551 320.34 149.763 321.441 149.742C322.542 149.721 323.627 149.466 324.622 148.995C325.779 148.448 326.783 147.625 327.546 146.598C328.309 145.571 328.807 144.371 328.996 143.106C329.186 141.841 329.061 140.548 328.632 139.342C328.203 138.137 327.484 137.055 326.539 136.194H326.539Z" fill="#FFB8B8"/>
<path d="M373.824 79.8377L368.95 66.6362L361.065 45.2519C360.496 43.696 359.584 42.2882 358.397 41.133C357.209 39.9778 355.777 39.1048 354.206 38.5788C354.083 38.5374 353.952 38.4961 353.827 38.4616C352.306 37.9997 350.702 37.8727 349.127 38.0892C347.552 38.3058 346.042 38.8608 344.701 39.7162L318.143 56.5645C315.711 58.1039 313.972 60.5287 313.294 63.3265C312.617 66.1243 313.053 69.0761 314.511 71.5583C317.832 77.302 321.451 82.8682 325.353 88.2341C328.448 92.4462 334.21 92.8943 335.21 99.788H354.792L374.616 81.9885L373.824 79.8377Z" fill="#CCCCCC"/>
<path d="M69.7311 241.179C78.5521 241.179 85.703 234.027 85.703 225.205C85.703 216.383 78.5521 209.231 69.7311 209.231C60.9101 209.231 53.7593 216.383 53.7593 225.205C53.7593 234.027 60.9101 241.179 69.7311 241.179Z" fill="#A0616A"/>
<path d="M108.942 214.21C109.1 214.335 109.252 214.468 109.4 214.608C110.134 215.299 110.713 216.138 111.1 217.069C111.487 218 111.673 219.002 111.646 220.009C111.619 221.017 111.379 222.008 110.943 222.917C110.506 223.825 109.882 224.631 109.112 225.282C108.933 225.433 108.746 225.574 108.551 225.705L109.632 262.204C109.663 263.398 109.308 264.571 108.619 265.548C107.931 266.525 106.946 267.254 105.81 267.627L105.744 267.641L76.1131 270.797C75.3075 270.883 74.4929 270.808 73.7163 270.577C72.9398 270.346 72.2167 269.964 71.5888 269.452C70.9609 268.94 70.4406 268.308 70.058 267.594C69.6754 266.88 69.438 266.097 69.3596 265.291C69.2812 264.484 69.3633 263.67 69.6012 262.896C69.8391 262.121 70.228 261.401 70.7456 260.778C71.2631 260.155 71.899 259.64 72.6165 259.264C73.334 258.888 74.119 258.657 74.926 258.586L96.0486 256.726L99.7015 225.117C99.4626 224.906 99.2388 224.678 99.0319 224.435C97.8865 223.079 97.2858 221.346 97.3464 219.572C97.407 217.799 98.1245 216.111 99.3597 214.836C100.595 213.562 102.259 212.792 104.03 212.676C105.801 212.56 107.552 213.107 108.942 214.21H108.942Z" fill="#A0616A"/>
<path d="M96.0366 447.522H104.01L107.802 416.767H96.0352L96.0366 447.522Z" fill="#A0616A"/>
<path d="M94.0033 444.918L109.704 444.918H109.704C111.018 444.918 112.32 445.177 113.533 445.679C114.747 446.182 115.85 446.919 116.78 447.849C117.709 448.778 118.446 449.881 118.949 451.095C119.451 452.309 119.71 453.61 119.71 454.925V455.25L94.0038 455.251L94.0033 444.918Z" fill="#2F2E41"/>
<path d="M16.7951 436.497L23.6452 440.576L42.6371 416.092L32.5266 410.072L16.7951 436.497Z" fill="#A0616A"/>
<path d="M16.3794 433.22L29.8698 441.253L29.8703 441.254C30.9993 441.926 31.9849 442.814 32.7707 443.867C33.5565 444.921 34.1271 446.118 34.4501 447.392C34.7731 448.666 34.842 449.991 34.653 451.291C34.4639 452.592 34.0206 453.842 33.3483 454.971L33.182 455.251L11.0942 442.098L16.3794 433.22Z" fill="#2F2E41"/>
<path d="M105.891 436.659H96.9631C96.2402 436.66 95.5426 436.393 95.0051 435.91C94.4677 435.426 94.1285 434.761 94.0533 434.042L85.0532 349.43C85.0305 349.217 84.9383 349.017 84.791 348.862C84.6436 348.707 84.4492 348.604 84.2377 348.57C84.0263 348.536 83.8095 348.573 83.6209 348.674C83.4323 348.776 83.2823 348.936 83.1941 349.131L66.9577 385.088L38.2121 431.967C37.8401 432.568 37.264 433.015 36.5895 433.226C35.9149 433.437 35.187 433.398 34.539 433.116L23.0554 428.062C22.6756 427.895 22.3358 427.649 22.0584 427.341C21.781 427.032 21.5723 426.668 21.4462 426.273C21.3201 425.878 21.2794 425.46 21.3269 425.048C21.3744 424.636 21.509 424.238 21.7217 423.882L48.1469 379.63L56.2512 342.345C53.7023 326.176 64.6295 302.137 64.7403 301.896L64.7944 301.778L94.8937 290.012L95.0447 290.197C106.915 329.156 114.148 371.082 108.807 433.977C108.742 434.707 108.406 435.386 107.867 435.882C107.328 436.378 106.623 436.655 105.891 436.659Z" fill="#2F2E41"/>
<path d="M63.5818 305.718L63.4416 305.423C63.3746 305.282 56.6818 291.164 51.5225 276.075C50.531 273.158 50.1561 270.066 50.4218 266.995C50.6874 263.925 51.5876 260.943 53.0655 258.239C54.5627 255.507 56.6108 253.115 59.0803 251.216C61.5497 249.317 64.3867 247.952 67.4113 247.206C72.6623 245.947 78.1906 246.617 82.9892 249.093C87.7878 251.57 91.5372 255.688 93.5543 260.697C97.6468 270.932 96.3425 281.857 95.1151 290.448L95.0906 290.62L94.9341 290.695L63.5818 305.718Z" fill="#3F3D56"/>
<path d="M89.0966 216.182H63.7352V205.126C69.3017 202.914 74.7489 201.033 78.0416 205.126C80.9735 205.126 83.7854 206.29 85.8586 208.364C87.9318 210.437 89.0966 213.25 89.0966 216.182V216.182Z" fill="#2F2E41"/>
<path d="M62.331 203.174C47.1695 203.174 42.9258 222.181 42.9258 232.904C42.9258 238.884 45.6298 241.023 49.879 241.746L51.3796 233.742L54.8943 242.091C56.0878 242.097 57.3418 242.074 58.6417 242.049L59.8334 239.595L62.4908 242.005C73.1339 242.021 81.736 243.573 81.736 232.904C81.736 222.181 78.0143 203.174 62.331 203.174Z" fill="#2F2E41"/>
<path d="M133.032 456H0.689284C0.506474 456 0.331152 455.927 0.201886 455.798C0.0726203 455.669 0 455.493 0 455.311C0 455.128 0.0726203 454.952 0.201886 454.823C0.331152 454.694 0.506474 454.621 0.689284 454.621H133.032C133.215 454.621 133.39 454.694 133.519 454.823C133.648 454.952 133.721 455.128 133.721 455.311C133.721 455.493 133.648 455.669 133.519 455.798C133.39 455.927 133.215 456 133.032 456Z" fill="#CCCCCC"/>
<path d="M135.52 229.197H105.881C104.145 229.195 102.481 228.504 101.253 227.277C100.025 226.049 99.3349 224.384 99.3329 222.648V193.005C99.3349 191.269 100.025 189.604 101.253 188.376C102.481 187.149 104.145 186.458 105.881 186.456H135.52C137.256 186.458 138.921 187.149 140.148 188.376C141.376 189.604 142.067 191.269 142.068 193.005V222.648C142.067 224.384 141.376 226.049 140.148 227.277C138.921 228.504 137.256 229.195 135.52 229.197Z" fill="white"/>
<path d="M135.52 229.197H105.881C104.145 229.195 102.481 228.504 101.253 227.277C100.025 226.049 99.3349 224.384 99.3329 222.648V193.005C99.3349 191.269 100.025 189.604 101.253 188.376C102.481 187.149 104.145 186.458 105.881 186.456H135.52C137.256 186.458 138.921 187.149 140.148 188.376C141.376 189.604 142.067 191.269 142.068 193.005V222.648C142.067 224.384 141.376 226.049 140.148 227.277C138.921 228.504 137.256 229.195 135.52 229.197ZM105.881 187.835C104.51 187.836 103.196 188.382 102.227 189.351C101.258 190.32 100.713 191.634 100.711 193.005V222.648C100.713 224.019 101.258 225.333 102.227 226.302C103.196 227.272 104.51 227.817 105.881 227.818H135.52C136.891 227.817 138.205 227.272 139.174 226.302C140.143 225.333 140.688 224.019 140.69 222.648V193.005C140.688 191.634 140.143 190.32 139.174 189.351C138.205 188.382 136.891 187.836 135.52 187.835H105.881Z" fill="#3F3D56"/>
<path d="M130.351 217.133H111.051C110.502 217.132 109.977 216.914 109.589 216.527C109.202 216.139 108.983 215.613 108.983 215.065V200.588C108.983 200.04 109.202 199.514 109.589 199.126C109.977 198.739 110.502 198.521 111.051 198.52H116.484C116.837 198.519 117.185 198.609 117.494 198.781C117.802 198.953 118.061 199.202 118.245 199.504L119.76 201.967H130.351C130.899 201.967 131.425 202.186 131.812 202.573C132.2 202.961 132.418 203.487 132.418 204.035V215.065C132.418 215.613 132.2 216.139 131.812 216.527C131.425 216.914 130.899 217.132 130.351 217.133Z" fill="#004058"/>
<path d="M129.723 224.447C129.819 224.623 129.908 224.805 129.99 224.991C130.398 225.913 130.607 226.911 130.602 227.919C130.598 228.927 130.381 229.923 129.965 230.841C129.549 231.76 128.943 232.58 128.188 233.248C127.433 233.916 126.546 234.417 125.584 234.718C125.36 234.787 125.133 234.844 124.903 234.89L111.738 268.948C111.303 270.061 110.52 271.004 109.506 271.637C108.493 272.27 107.302 272.56 106.111 272.463L106.045 272.45L77.5107 263.859C76.7349 263.626 76.0131 263.241 75.3869 262.726C74.7607 262.212 74.2426 261.579 73.8625 260.864C73.4823 260.148 73.2477 259.364 73.1721 258.557C73.0966 257.751 73.1816 256.937 73.4222 256.163C73.6629 255.389 74.0544 254.671 74.5742 254.05C75.094 253.428 75.7318 252.916 76.4507 252.542C77.1696 252.168 77.9555 251.941 78.7628 251.873C79.5701 251.805 80.3829 251.897 81.1543 252.145L101.344 258.627L116.974 230.913C116.836 230.626 116.718 230.329 116.622 230.025C116.092 228.331 116.211 226.5 116.955 224.889C117.699 223.278 119.015 222.001 120.648 221.306C122.281 220.61 124.114 220.547 125.791 221.127C127.468 221.708 128.869 222.891 129.723 224.447H129.723Z" fill="#A0616A"/>
</g>
<defs>
<clipPath id="clip0_2_59">
<rect width="604" height="456" fill="white"/>
</clipPath>
</defs>
</svg>
