<svg width="211" height="211" viewBox="0 0 211 211" fill="none" xmlns="http://www.w3.org/2000/svg">
<path d="M70.8828 139.26H51.4972C47.7223 139.26 44.6397 142.128 44.6397 145.656V149.991H127.309V145.656C127.309 142.145 124.21 139.26 120.435 139.26H100.555V128.232L161.481 128.248C166.641 128.248 170.877 124.012 170.877 118.852L170.894 18.5284C170.894 13.3523 166.657 9.11585 161.497 9.11585L10.4841 9.08289C5.30797 9.08289 1.07148 13.3194 1.07148 18.479L1.03851 118.819C1.03851 123.995 5.275 128.232 10.4511 128.232L71.2125 128.248L70.8828 139.26Z" fill="#B0BEC5"/>
<path d="M149.925 160.113L23.5891 160.08C21.8253 160.08 20.0944 161.481 19.7483 163.212L11.605 199.411C11.2588 201.126 13.2699 201.835 15.0337 201.835L158.431 201.868C160.179 201.868 161.893 201.159 161.547 199.444L153.75 163.228C153.387 161.53 151.673 160.113 149.925 160.113Z" fill="#B0BEC5"/>
<path d="M30.8423 169.262L143.579 169.278C145.343 169.278 146.777 170.712 146.777 172.476C146.777 174.24 145.343 175.674 143.579 175.674L30.8423 175.658C29.0949 175.658 27.6443 174.223 27.6443 172.46C27.6443 170.679 29.0949 169.262 30.8423 169.262Z" fill="white"/>
<path d="M146.645 191.087L27.7762 191.054C26.0124 191.054 24.5782 189.62 24.5782 187.856C24.5782 186.092 26.0124 184.658 27.7762 184.658L146.645 184.691C148.392 184.691 149.826 186.125 149.826 187.889C149.843 189.653 148.409 191.087 146.645 191.087Z" fill="white"/>
<path d="M206.071 188.4C198.785 194.252 188.647 191.037 182.07 181.229C175.509 171.405 170.795 166.344 176.745 162.355C182.696 158.365 192.01 158.992 202.148 166.624C209.929 172.476 211.676 183.916 206.071 188.4Z" fill="#B0BEC5"/>
<path d="M70.8828 128.578H100.555V133.523H70.8828V128.578Z" fill="#78909C"/>
<path d="M11.605 199.444H161.563V202.741H11.605V199.444Z" fill="#78909C"/>
<path d="M206.104 188.4C206.104 188.4 198.851 195.142 189.076 188.416C179.976 182.152 174.866 169.921 174.421 168.751C174.372 168.784 179.35 170.943 183.554 174.668C186.059 176.877 190.691 183.026 195.752 186.191C199.988 188.845 204.802 188.829 206.104 188.4Z" fill="#78909C"/>
<path d="M25.1387 103.209C21.4626 103.209 18.3636 100.241 18.3636 96.4171V31.4687C18.3636 27.6278 21.4791 24.1826 25.1387 24.1826H146.266C149.909 24.1826 153.074 27.6278 153.074 31.4687V96.4171C153.074 100.258 149.909 103.209 146.266 103.209H25.1387Z" fill="#78909C"/>
<path d="M83.922 20.6384L56.8216 111.451L14.8359 110.989V21.5451L83.922 20.6384Z" fill="#ECEFF1"/>
<path d="M148.359 31.3203V95.6094H23.0781V31.3203H148.359ZM148.541 23.0781H22.8309C19.023 23.0781 14.8359 26.3091 14.8359 30.2159V96.516C14.8359 100.439 19.023 103.852 22.8309 103.852H148.524C152.316 103.852 156.602 100.439 156.602 96.516V30.2159C156.602 26.2926 152.695 23.0781 148.92 23.0781H148.541Z" fill="#78909C"/>
</svg>
