<svg width="48" height="48" viewBox="0 0 48 48" fill="none" xmlns="http://www.w3.org/2000/svg">
<g clip-path="url(#clip0_3_11)">
<path d="M10.9091 47.7639V23.1645L5.15756 16.1851L0 12.312V43.4227C0 45.8247 1.46719 47.7639 3.27281 47.7639H10.9091Z" fill="#4285F4"/>
<path d="M37.0909 47.7636H44.7272C46.5383 47.7636 48 45.8173 48 43.4225V12.312L42.1583 16.7482L37.0909 23.1642V47.7636Z" fill="#34A853"/>
<path d="M10.9091 23.1645L10.1265 13.5529L10.9091 4.35352L24 17.3767L37.0909 4.35352L37.9665 13.0562L37.0909 23.1645L24 36.1877L10.9091 23.1645Z" fill="#EA4335"/>
<path d="M37.0909 4.35325V23.1643L48 12.3118V6.5237C48 1.15541 43.38 -1.90491 40.1456 1.31458L37.0909 4.35325Z" fill="#FBBC04"/>
<path d="M0 12.3119L5.01731 17.3034L10.9091 23.1644V4.35336L7.85437 1.31469C4.61437 -1.90504 0 1.15552 0 6.52356V12.3117V12.3119Z" fill="#C5221F"/>
</g>
<defs>
<clipPath id="clip0_3_11">
<rect width="48" height="48" fill="white"/>
</clipPath>
</defs>
</svg>
