<svg width="48" height="48" viewBox="0 0 48 48" fill="none" xmlns="http://www.w3.org/2000/svg">
<rect width="48" height="48" fill="white"/>
<path d="M34.636 0.154C37.072 0.266 38.756 0.624 40.312 1.228C41.7874 1.77962 43.123 2.64958 44.224 3.776C45.3504 4.87697 46.2204 6.21264 46.772 7.688C47.376 9.246 47.734 10.928 47.846 13.364C47.984 16.384 48 17.448 48 24C48 30.552 47.984 31.616 47.846 34.636C47.734 37.072 47.376 38.756 46.772 40.314C46.2201 41.7886 45.3502 43.1236 44.224 44.224C43.1231 45.3505 41.7874 46.2204 40.312 46.772C38.754 47.376 37.072 47.734 34.636 47.846C31.616 47.984 30.554 48 24 48C17.446 48 16.382 47.984 13.364 47.846C10.928 47.734 9.244 47.376 7.686 46.772C6.21133 46.2202 4.87635 45.3502 3.776 44.224C2.64958 43.123 1.77962 41.7874 1.228 40.312C0.624 38.754 0.266 37.072 0.154 34.636C0.016 31.62 0 30.556 0 24C0 17.446 0.016 16.38 0.154 13.364C0.266 10.928 0.624 9.244 1.228 7.688C1.77962 6.21264 2.64958 4.87697 3.776 3.776C4.8764 2.64983 6.21136 1.77988 7.686 1.228C9.246 0.624 10.928 0.266 13.364 0.154C16.38 0.016 17.444 0 24 0C30.554 0 31.62 0.016 34.636 0.154ZM24 5.334C17.52 5.334 16.528 5.348 13.606 5.482C11.752 5.566 10.64 5.802 9.618 6.2C8.748 6.54 8.194 6.9 7.546 7.546C6.898 8.194 6.538 8.748 6.2 9.618C5.804 10.638 5.566 11.752 5.482 13.606C5.348 16.528 5.334 17.52 5.334 24C5.334 30.48 5.348 31.472 5.482 34.394C5.566 36.248 5.802 37.36 6.2 38.38C6.54 39.252 6.9 39.806 7.546 40.454C8.194 41.102 8.748 41.462 9.618 41.8C10.638 42.196 11.752 42.434 13.606 42.518C16.53 42.652 17.522 42.666 24 42.666C30.48 42.666 31.47 42.652 34.394 42.518C36.248 42.434 37.36 42.198 38.382 41.8C39.252 41.46 39.806 41.1 40.454 40.454C41.102 39.806 41.462 39.252 41.8 38.382C42.196 37.362 42.434 36.248 42.518 34.394C42.652 31.47 42.666 30.478 42.666 24C42.666 17.522 42.652 16.53 42.518 13.606C42.434 11.752 42.198 10.64 41.8 9.62C41.5172 8.83416 41.0565 8.12435 40.454 7.546C39.8757 6.94342 39.1659 6.48275 38.38 6.2C37.36 5.804 36.246 5.566 34.392 5.482C31.47 5.348 30.478 5.334 23.998 5.334H24ZM24 36.444C20.6996 36.444 17.5345 35.1329 15.2008 32.7992C12.8671 30.4655 11.556 27.3004 11.556 24C11.556 20.6996 12.8671 17.5345 15.2008 15.2008C17.5345 12.8671 20.6996 11.556 24 11.556C27.3004 11.556 30.4655 12.8671 32.7992 15.2008C35.1329 17.5345 36.444 20.6996 36.444 24C36.444 27.3004 35.1329 30.4655 32.7992 32.7992C30.4655 35.1329 27.3004 36.444 24 36.444ZM24 31.112C25.8862 31.112 27.6952 30.3627 29.0289 29.0289C30.3627 27.6952 31.112 25.8862 31.112 24C31.112 22.1138 30.3627 20.3048 29.0289 18.9711C27.6952 17.6373 25.8862 16.888 24 16.888C22.1138 16.888 20.3048 17.6373 18.9711 18.9711C17.6373 20.3048 16.888 22.1138 16.888 24C16.888 25.8862 17.6373 27.6952 18.9711 29.0289C20.3048 30.3627 22.1138 31.112 24 31.112ZM36.444 14.222C35.7367 14.222 35.0583 13.941 34.5581 13.4409C34.058 12.9407 33.777 12.2623 33.777 11.555C33.777 10.8477 34.058 10.1693 34.5581 9.66915C35.0583 9.16899 35.7367 8.888 36.444 8.888C37.1513 8.888 37.8297 9.16899 38.3299 9.66915C38.83 10.1693 39.111 10.8477 39.111 11.555C39.111 12.2623 38.83 12.9407 38.3299 13.4409C37.8297 13.941 37.1513 14.222 36.444 14.222Z" fill="#E73188"/>
</svg>
