<svg width="221" height="221" viewBox="0 0 221 221" fill="none" xmlns="http://www.w3.org/2000/svg">
<path fill-rule="evenodd" clip-rule="evenodd" d="M155.777 63.5835C155.777 79.5186 151.818 100.302 145.727 97.1479C143.236 105.282 138.006 112.304 130.926 117.02C123.847 121.736 115.352 123.857 106.887 123.022C98.4206 122.187 90.5046 118.447 84.4827 112.438C78.4608 106.43 74.7043 98.5216 73.8509 90.0575C67.8056 79.4817 59.8772 58.2887 80.2598 41.769C80.6282 41.6493 80.8492 40.6548 81.1807 39.1907C82.4422 33.6519 85.237 21.3403 102.866 23.693C116.462 25.5025 155.777 32.5238 155.777 63.5881V63.5835ZM138.254 73.6298C138.254 73.6298 136.173 79.7165 138.125 86.4985C138.1 93.7297 135.24 100.663 130.16 105.809C125.08 110.955 118.184 113.904 110.954 114.023C103.723 114.142 96.7349 111.421 91.4885 106.444C86.2421 101.467 83.1562 94.632 82.8934 87.4055C83.561 84.8732 83.561 80.5867 83.5564 75.8214C83.5518 67.2254 83.5426 57.0825 87.4792 52.9479C115.054 71.3139 138.254 73.6298 138.254 73.6298Z" fill="#1F95C8"/>
<path d="M59.8542 165.75C59.8542 160.768 62.4924 156.404 66.4519 153.973C66.3012 153.399 66.1599 152.824 66.0284 152.246C65.3297 149.101 64.7842 145.923 64.3939 142.725C63.9983 139.66 63.7601 136.577 63.6802 133.489C44.246 141.118 27.625 154.415 27.625 168.374V193.375H193.375V168.374C193.375 155.004 178.135 142.246 159.774 134.488V134.617C159.857 137.425 159.7 140.648 159.396 143.747C159.12 146.62 158.71 149.483 158.218 151.937H161.146C162.001 151.938 162.838 152.176 163.565 152.626C164.292 153.076 164.88 153.719 165.262 154.484L169.866 163.692C170.188 164.332 170.354 165.036 170.354 165.75V174.958C170.354 176.179 169.869 177.351 169.006 178.214C168.142 179.077 166.971 179.562 165.75 179.562H156.542V170.354H161.146V166.837L158.3 161.146H145.575L142.729 166.837V170.354H147.333V179.562H138.125C136.904 179.562 135.733 179.077 134.869 178.214C134.006 177.351 133.521 176.179 133.521 174.958V165.75C133.521 165.036 133.687 164.332 134.009 163.692L138.613 154.484C138.995 153.719 139.583 153.076 140.31 152.626C141.037 152.176 141.874 151.938 142.729 151.937H148.784C148.885 151.542 148.986 151.104 149.088 150.621C149.548 148.452 149.958 145.703 150.234 142.863C150.51 140.017 150.639 137.195 150.57 134.874C150.553 133.913 150.477 132.954 150.344 132.001C150.243 131.348 150.142 131.048 150.123 130.984C150.119 130.97 150.114 130.966 150.123 130.975L150.137 130.97C147.694 130.211 145.223 129.546 142.729 128.977C140.413 128.447 138.019 131.633 136.974 133.627H82.875C82.7406 133.37 82.6086 133.112 82.479 132.853C81.503 130.91 80.3013 128.511 78.2708 128.977C76.4982 129.377 74.7256 129.837 72.953 130.344C72.8959 131.151 72.8713 131.961 72.8794 132.77C72.8978 135.316 73.1418 138.433 73.5331 141.583C73.9245 144.723 74.454 147.78 75.0065 150.193C75.163 150.888 75.3196 151.514 75.4669 152.053C78.0992 152.399 80.5759 153.496 82.6007 155.213C84.6255 156.93 86.1124 159.195 86.8836 161.735C87.6548 164.276 87.6775 166.984 86.949 169.537C86.2205 172.09 84.7716 174.379 82.7759 176.13C80.7802 177.881 78.3222 179.02 75.6961 179.41C73.07 179.8 70.3871 179.425 67.9686 178.33C65.5501 177.234 63.4985 175.465 62.0594 173.234C60.6203 171.003 59.8547 168.405 59.8542 165.75Z" fill="#1F95C8"/>
<path d="M78.2708 165.75C78.2708 168.393 76.1437 170.423 73.6667 170.423C71.1896 170.423 69.0625 168.397 69.0625 165.75C69.0625 163.107 71.1896 161.077 73.6667 161.077C76.1437 161.077 78.2708 163.103 78.2708 165.75Z" fill="#1F95C8"/>
</svg>
