<svg width="184" height="46" viewBox="0 0 184 46" fill="none" xmlns="http://www.w3.org/2000/svg">
<g clip-path="url(#clip0_3_7)">
<path d="M72.6142 26.9427L82.7673 39.4285H74.75L65.7142 27.9615V39.4285H59.1427V6.57153H65.7142V25.8915L74.06 16.4285H82.4385L72.6142 26.9427ZM46.3285 15.7715C44.8896 15.7931 43.4775 16.163 42.2129 16.8497C40.9483 17.5363 39.869 18.5192 39.0673 19.7142V16.4285H32.8573V39.4285H39.4285V28.6842C39.3422 27.9044 39.4173 27.1151 39.6492 26.3656C39.8811 25.616 40.2649 24.9222 40.7765 24.3273C41.2881 23.7325 41.9167 23.2493 42.6231 22.9079C43.3296 22.5664 44.0987 22.374 44.8827 22.3427C48.6942 22.3427 49.2858 26.0885 49.2858 28.6842V39.4285H55.8573V27.2385C55.8573 20.01 53.4585 15.7715 46.46 15.7715H46.3285ZM105.143 28.4542C105.168 28.9358 105.168 29.4184 105.143 29.9H87.8927V30.13C88.1727 31.5002 88.9318 32.7257 90.0338 33.5868C91.1358 34.4478 92.5085 34.8881 93.9058 34.8285C95.0142 34.8767 96.1209 34.7008 97.1597 34.3112C98.1985 33.9217 99.1481 33.3266 99.9515 32.5615L104.322 35.8473C102.936 37.2607 101.271 38.3681 99.4313 39.0981C97.5919 39.8282 95.62 40.1646 93.6427 40.0858C92.0052 40.1892 90.3645 39.9401 88.8315 39.3552C87.2985 38.7703 85.9089 37.8632 84.7565 36.6952C83.6041 35.5272 82.7158 34.1255 82.1516 32.5848C81.5873 31.0441 81.3603 29.4002 81.4858 27.7642C81.4521 26.1492 81.7515 24.5446 82.3652 23.0504C82.9789 21.5561 83.8938 20.2043 85.0528 19.0792C86.2119 17.954 87.5903 17.0797 89.1021 16.5106C90.6139 15.9415 92.2267 15.6899 93.84 15.7715C100.017 15.7715 105.143 20.1415 105.143 28.4542ZM99.0315 25.6285C99.0074 24.9776 98.8509 24.3386 98.5718 23.7502C98.2926 23.1617 97.8966 22.6363 97.4078 22.206C96.919 21.7756 96.3477 21.4492 95.7287 21.2468C95.1097 21.0443 94.4559 20.9701 93.8073 21.0285C90.9179 20.7162 88.3013 22.7513 87.8927 25.6285H99.0315ZM6.57153 6.57153H0V39.4285H19.7142V32.8577H6.57153V6.57153ZM124.857 6.57153H131.428V39.4285H125.218V37.1285C124.43 38.1 123.425 38.8735 122.284 39.387C121.143 39.9005 119.897 40.1398 118.647 40.0858C117.12 40.0466 115.617 39.6954 114.23 39.0539C112.844 38.4124 111.603 37.4941 110.584 36.3555C109.566 35.2168 108.791 33.8819 108.307 32.4327C107.823 30.9835 107.641 29.4507 107.772 27.9285C107.616 26.4041 107.78 24.8642 108.253 23.4066C108.725 21.949 109.496 20.6057 110.516 19.4622C111.536 18.3187 112.782 17.4001 114.177 16.7647C115.571 16.1293 117.082 15.791 118.614 15.7715C119.755 15.7215 120.895 15.8991 121.967 16.294C123.039 16.6889 124.021 17.2931 124.857 18.0715V6.57153ZM125.35 27.9285C125.453 27.1698 125.393 26.3977 125.172 25.6644C124.952 24.931 124.577 24.2535 124.073 23.6774C123.568 23.1014 122.946 22.6401 122.248 22.3249C121.55 22.0097 120.793 21.8477 120.027 21.85C116.884 22.0782 114.502 24.7814 114.672 27.9285C114.502 31.0755 116.884 33.7791 120.027 34.0073C120.793 34.0096 121.55 33.8476 122.248 33.5324C122.946 33.2171 123.568 32.7559 124.073 32.1798C124.577 31.6036 124.952 30.926 125.173 30.1927C125.393 29.4593 125.453 28.6872 125.35 27.9285ZM26.2858 5.91423C25.229 5.92921 24.2174 6.3446 23.455 7.07654C22.6927 7.80847 22.2364 8.80241 22.1785 9.85766C22.1785 12.1257 24.0174 13.9646 26.2858 13.9646C28.5541 13.9646 30.3923 12.1253 30.3923 9.85766C30.3343 8.80254 29.8781 7.80873 29.1158 7.07689C28.3536 6.34504 27.342 5.92965 26.2854 5.91459L26.2858 5.91423ZM23 39.4285H29.5715V16.4285H23V39.4285ZM184 3.28577V42.7142C184 43.5857 183.654 44.4214 183.038 45.0376C182.421 45.6538 181.586 46 180.714 46H141.286C140.414 46 139.579 45.6538 138.962 45.0376C138.346 44.4214 138 43.5857 138 42.7142V3.28577C138 2.41433 138.346 1.57858 138.962 0.962379C139.579 0.346178 140.414 0 141.286 0L180.714 0C181.586 0 182.421 0.346178 183.038 0.962379C183.654 1.57858 184 2.41433 184 3.28577ZM151.143 16.4285H144.572V39.4285H151.143V16.4285ZM151.964 9.8573C151.964 7.58892 150.125 5.75 147.857 5.75C145.589 5.75 143.75 7.58892 143.75 9.8573C143.75 12.1253 145.589 13.9642 147.857 13.9642C150.125 13.9642 151.964 12.1253 151.964 9.8573ZM177.428 27.2385C177.428 20.01 175.03 15.7715 168.032 15.7715C166.57 15.7717 165.132 16.1314 163.842 16.819C162.553 17.5066 161.453 18.5009 160.638 19.7142V16.4285H154.428V39.4285H161V28.6842C160.914 27.9044 160.989 27.1151 161.221 26.3656C161.453 25.616 161.836 24.9222 162.348 24.3273C162.86 23.7325 163.488 23.2493 164.195 22.9079C164.901 22.5664 165.67 22.374 166.454 22.3427C170.266 22.3427 170.857 26.0885 170.857 28.6842V39.4285H177.428V27.2385Z" fill="#0A66C2"/>
</g>
<defs>
<clipPath id="clip0_3_7">
<rect width="184" height="46" fill="white"/>
</clipPath>
</defs>
</svg>
