<svg width="211" height="211" viewBox="0 0 211 211" fill="none" xmlns="http://www.w3.org/2000/svg">
<path d="M139.26 89.675L130.38 98.5546L112.182 80.7075L121.061 71.74C122.82 69.8938 125.809 69.8058 127.919 71.74L139.26 82.7296C141.106 84.5758 141.194 87.565 139.26 89.675ZM70.3333 122.292L106.995 85.455L125.193 103.742L88.62 140.667H70.3333V122.292ZM114.292 17.5833V35.1667C152.887 39.9142 180.229 74.9929 175.482 113.588C173.541 129.141 166.47 143.602 155.388 154.684C144.305 165.767 129.844 172.838 114.292 174.778V192.362C162.646 187.087 197.373 143.656 192.098 95.3896C187.526 54.4204 155.261 21.9792 114.292 17.5833ZM96.7083 17.5833C79.4767 19.1658 63.2121 25.9354 49.8488 36.925L62.4208 50.4642C72.2675 42.5517 84.1362 37.4525 96.7083 35.6942V18.1108V17.5833ZM37.4525 49.8488C26.4249 63.1677 19.6555 79.4939 18.0229 96.7083H35.6063C37.2767 84.2242 42.2 72.3554 50.0246 62.4208L37.4525 49.8488ZM18.1108 114.292C19.8692 131.523 26.6388 147.788 37.5404 161.151L50.0246 148.579C42.2609 138.641 37.3114 126.799 35.6942 114.292H18.1108ZM62.0692 161.503L49.8488 173.548C63.1662 184.649 79.4702 191.562 96.7083 193.417V175.833C84.2013 174.216 72.359 169.267 62.4208 161.503H62.0692Z" fill="#F2B962"/>
</svg>
